<svg width="544" height="168" viewBox="0 0 544 168" fill="none" xmlns="http://www.w3.org/2000/svg">
<path d="M279.984 90.3668V152.23H300.042V97.4077H312.658C334.436 97.4077 346.848 84.4167 346.848 61.4994V49.8548C346.657 27.891 334.996 16.6201 312.08 16.6201H279.984V84.39V90.3668ZM326.212 61.3144C326.212 76.0256 321.051 82.5115 310.547 82.5115H300.042V31.5182H310.36C321.257 31.5182 326.212 37.4416 326.212 51.1821V61.3144Z" fill="white"/>
<path d="M384.101 16.6201H364.044L340.172 152.23H394.795L397.86 134.083H363.481L384.101 16.6201Z" fill="white"/>
<path d="M431.299 16.6201L404.176 152.23H424.42L430.714 116.137H457.838L464.154 152.23H484.399L457.077 16.6201H431.299ZM433.397 100.659L441.434 55.2003C442.388 48.5084 443.137 42.2093 443.902 35.1436H444.474C445.237 42.2093 446 48.5084 447.144 55.2003L455.164 100.659H433.397Z" fill="white"/>
<path d="M522.613 16.6201L508.463 64.564C507.128 69.7227 506.556 72.9552 505.793 79.2581H505.412C504.458 72.9647 503.886 69.7227 502.551 64.564L488.213 16.6201H466.834L495.479 97.9874V152.23H515.535V97.9874L543.999 16.6201H522.613Z" fill="white"/>
<path d="M0.0591219 16.6659H18.9629L18.5624 125.415H19.516C21.0112 118.351 46.344 16.6659 46.344 16.6659H76.3894L76.9348 131.802H77.6977L98.7012 16.6659H120.115L92.1902 152.23H58.0883C58.0883 152.23 57.9109 52.2653 58.2694 45.3903H57.3159C56.1925 52.2653 33.8444 152.23 33.8444 152.23H0L0.0591219 16.6659Z" fill="white"/>
<path d="M136.838 91.0133L126.266 135.81H168.621L164.793 152.23H102.391L134.217 16.6659H195.292L191.463 33.0858H150.438L140.665 74.5933L136.838 91.0133Z" fill="white"/>
<path d="M258.938 88.9079L311.072 84.0334V83.9647L258.938 79.0921C252.006 78.4438 245.519 75.395 240.596 70.4726C235.673 65.5501 232.625 59.063 231.976 52.1318L227.102 0H227.033L222.158 52.1318C221.51 59.0628 218.462 65.5499 213.539 70.4724C208.617 75.3949 202.13 78.4437 195.199 79.0921L143.064 83.9647V84.0334L195.199 88.9079C202.13 89.5559 208.617 92.6046 213.54 97.5272C218.462 102.45 221.511 108.937 222.158 115.868L227.033 168H227.102L231.976 115.868C232.624 108.937 235.673 102.45 240.596 97.527C245.519 92.6045 252.006 89.5559 258.938 88.9079Z" fill="white"/>
<path d="M136.073 74.4618H172.189L168.573 94.4346H131.906" fill="white"/>
</svg>
